<svg version="1" xmlns="http://www.w3.org/2000/svg" width="933.333" height="933.333" viewBox="0 0 700.000000 700.000000"><path d="M41 148c0 140.3.1 148 1.8 148.1 2.2.1 50.5.1 51.5 0 .4-.1.7-28.1.7-62.4v-62.3l23.8.2c25.8.2 31.9 1.1 41.9 6.1 4.3 2.1 16.3 12.9 16.3 14.6 0 .3 1.8 3.2 4 6.5s14.2 26.4 26.7 51.3c12.4 25 22.8 45.6 22.9 45.8.6.7 56.6.6 57.7-.1.8-.5.8-1 0-2-.6-.7-11.5-22.2-24.4-47.8-32.2-64.2-36.5-71.6-50.6-85.9-4.6-4.6-8.3-8.5-8.3-8.7 0-.2.5-.4 1.1-.4 2.2 0 12.3-7.5 18.1-13.4 14.2-14.5 21.1-33.9 21.1-59.6-.1-33-11.4-57.6-33.5-72.7l-7-4.8-81.9-.3L41 0v148zM168.3 3.4c9.8 1.9 21.7 5.3 23.2 6.7.5.5 1.5.9 2.2.9 2 0 14.3 8.4 18.7 12.7 13 13 19 30.2 19 55.3 0 15.3-2.8 27.6-8.7 38-4.1 7.3-13.9 16.9-21.2 20.8-5.5 3-23.9 9.4-31.3 10.8-6.5 1.3-5.7 1.8 13.8 8.5 9.2 3.2 15.8 8 24.3 17.8 3.3 3.8 11.4 15.7 15.1 22.1 3.9 6.8 42.6 83.8 42.6 84.7 0 .6-20 .9-25.7.4-.6 0-10.6-19-22.2-42.1-20.4-40.9-27.9-53.9-36-62.8-5.6-6.2-13.6-11.9-20-14.3-11.8-4.4-18-5.1-50.3-5.2l-30.8-.2v125l-12.2-.1c-6.8-.1-12.6-.3-13-.3-.5-.1-.8-63.4-.8-140.7V.8l52.3.5c43.5.3 53.7.7 61 2.1z"/><path d="M81 79.4V139l36.3-.4c32.5-.3 37-.6 43.7-2.4 10.1-2.7 15.5-5.2 21.6-9.8 14.1-10.8 20.5-25.3 20.6-46.9.1-24.8-9.8-42.8-28.3-51.8-13.4-6.5-16.3-6.9-57.1-7.4L81 19.8v59.6zm74-43.8c7.8 1.4 17.9 5.8 21.7 9.3 8.9 8.3 12.8 19.3 12.6 35.3-.3 23.8-9.8 36.5-31.4 42.4-5.3 1.5-11.4 1.8-34.6 2l-28.3.3v-91l26.3.1c18.2.1 28.5.6 33.7 1.6zM493.7 2.6c-.1.1-3.9.5-8.5.8-4.6.4-8.9.9-9.5 1.1-.7.2-2.8.6-4.7.9-22.7 3.3-51.1 14.8-73.7 30-12.5 8.4-15.7 11-27.4 22.6-17.5 17.3-28.5 32.5-39.2 54.5-7.2 14.6-14.4 37.6-16.2 51.7-.3 2.4-1 7.2-1.4 10.8-1.8 14.4-.7 42.3 2.4 57 .4 2.1 3.6 15 4.9 20 4.5 17 17 41 31.7 61.1l4.8 6.6-6.3 16.9c-3.5 9.3-7.3 19.4-8.4 22.4l-2 5.5-1.2-3c-.7-1.7-4.5-12-8.7-23-16.1-43.3-16.6-44.5-18.2-44.6-4.6-.3-21.2-.1-21.5.2-.1.2 3.2 9.6 7.5 20.9 4.3 11.3 7.8 20.8 7.8 21.2.1.4-2.8-1-6.4-3.2-17.7-10.8-36.9-18.4-59.5-23.6-14.6-3.3-20.9-3.9-41-3.9-23.6 0-37.3 1.9-57.5 8.2-29.7 9.1-58.8 27-80.5 49.4-26.8 27.6-44.8 62.2-51.5 98.7-2.5 14-2.7 16.6-3 33.9-.2 17.3.2 22.4 3 38 5.5 31 22.4 66 43.7 90.3 8.5 9.8 24.7 25 26.6 25 .6 0 1.2.4 1.2 1 0 2.4 31.8 21.3 43.2 25.6 2.4.9 5.7 2.2 7.3 2.9 3 1.3 19 6.2 23 7.1 1.1.2 3.1.6 4.5.9 1.4.3 3.6.8 5 1.1 15 3.1 45.7 3.8 61 1.4 4.1-.7 8.4-1.3 9.5-1.5 11.6-1.8 33.1-8.8 46.5-15.2 21.9-10.4 37.3-21.4 54.6-38.7 9.6-9.6 25.4-29 25.4-31.2 0-.4.6-1.5 1.4-2.3 2.9-3.3 12.5-22.3 16.3-32.1 3.9-10.3 8.3-25.3 9.9-34 2.2-12.1 2.7-19.1 2.8-35.5.1-14.4-.6-26.2-1.9-31.9-.3-1.2-.7-3.2-.9-4.6-3.7-21.3-13.9-47.1-26.6-67.3l-6.2-9.9 7.7-20.6c4.3-11.4 8.4-22.2 9.1-24l1.4-3.3 2.7 2.6c6.9 6.5 26.4 20.3 35.3 24.9 3.6 1.9 13.9 7 20 9.9l3.5 1.6-6.9-.5c-9.4-.6-14.6-2-24.5-6.6-4.6-2.1-8.4-3.8-8.5-3.8-.1 0 .2 22.2.3 23.1.1.3 3.4 1.6 7.4 2.7 22 6.4 44.1 5.5 55.7-2.2 2.2-1.4 4.1-2.6 4.3-2.6.2 0 .3 66.2.3 147.1-.1 80.9.2 147.6.6 148.2 1 1.6 52.6 1.7 53.1.2.2-.5.3-28.7.3-62.5l-.1-61.5 16.5.2c35.2.4 41.9 1.4 51.6 7.6 11.4 7.2 17.3 16.5 44.9 71.4l23 45.8h46l.3-11.7.3-11.6-21-41.8c-11.6-22.9-21.6-42.4-22.3-43.3-.7-.9-2.2-3.2-3.3-5.1-1-1.9-2.3-4-2.7-4.5-.4-.6-2.5-3.3-4.5-6.1-5.1-6.8-7.9-10-13.9-15.6l-5.1-4.6 4.1-2.3c7.9-4.3 20.9-16.1 22.2-20.1.3-1 .9-1.8 1.3-1.8 1.4 0 9-17.5 10.5-24.2 2.4-10.3 3.5-28.8 2.2-37.6-.3-1.8-.8-5.2-1.1-7.5-1.8-12.6-8.2-28.2-15.6-37.7-5.5-7.1-14.6-14.8-23.1-19.5-6.5-3.5-20.4-8.8-26.4-9.9-12-2.2-20-3.3-21.1-2.9-.7.3-1.3.1-1.3-.4s2.2-1.8 5-3c4.4-1.9 15.9-8 25-13.5 10.8-6.4 33.3-25.8 42-36.3 13.3-16.1 25.3-35.3 31.7-51 5.1-12.6 10.4-29.8 11.8-39 2.7-16.8 3.2-23.8 3-39-.2-9.4-.6-19-1-21.5-1.9-12.4-5-25.6-8.6-36.4-5.6-16.6-10.9-27.8-21.4-44.7-2.7-4.3-6.9-10.5-7.4-10.9-.4-.3-3.4-3.9-6.8-8-23.3-28.6-57-50.3-95.7-61.5-9.6-2.7-9.3-2.7-24-5-7.9-1.3-37.9-2.8-38.9-1.9zm-89.9 72.6c1.3 1.3 1.7 15.3.6 18.2-.4 1.1-1.9 1.6-5.1 1.6-2.4 0-4.2.4-3.9.9.3.4 1.6.6 3 .4 1.3-.3 3.3 0 4.5.6 1.9 1 2.1 2.1 2.1 9.1 0 8.6-.5 11-2.5 11-.8 0-1.7.6-2.1 1.2-.4.7-.4 1 .1.6.4-.4 1.6-.3 2.7.3 1.8 1 1.9 1.9 1.4 10.2-.6 12-.6 10.8-.1 21.5.5 9.1.5 9.3-2 10.2-1.4.5-2.5 1.2-2.5 1.5 0 .4.4.4.9.1.4-.3 1.6.3 2.5 1.3 1.4 1.5 1.7 3.6 1.5 10-.1 4.5-.7 8.5-1.3 9-1.6 1.4-18.5.8-19.4-.6-1.1-1.7-.7-17.2.5-18.4.5-.5 3.3-1.1 6.1-1.1 2.8-.1 4.9-.5 4.7-.9-.3-.3-2.7-.5-5.4-.3-6 .3-6.4-.4-6.5-11.1-.1-9.4.7-10.1 10.7-9.9 4.2 0 7.7-.2 7.7-.5 0-.4-3.6-.7-8.1-.6-6.5.1-8.3-.2-9.2-1.6-1-1.3-1.3-8.7-.8-17 .1-.9 1.1-2.1 2.4-2.7 1.7-.8 1.8-1.1.5-1.1-2.5-.1-3.4-2.8-3.2-9.7.2-10.1.7-11.3 5.5-11.2 2.2 0 4.3-.2 4.6-.6.4-.3-1.4-.6-3.9-.6s-5-.6-5.5-1.3c-1.5-2-.8-17.8.8-18.8 2.1-1.3 17.3-1.1 18.7.3zm22 0c1.4 1.4 1.7 16.5.4 18.6-.6.9-3.4 1.2-10.3 1l-9.4-.3-.3-9.4c-.2-6.9.1-9.7 1-10.3 2.1-1.3 17.2-1 18.6.4zm22-.4c.9.6 1.2 3.4 1 10.3l-.3 9.4-5 .6c-3.6.4-4.2.7-2 .9 1.7.1 3.4.2 3.9.1 2.6-.5 3.6 2.5 3.6 11 0 4.8-.4 9-.8 9.3-.5.3-2.5.6-4.5.8-2 .1-3.4.5-3.2.9.3.3 1.7.5 3.2.3 1.5-.1 3.3.2 4 .8 1.7 1.4 1.8 18.4.1 19.4-1.7 1.1-16 1.2-18 .2-1.5-.7-1.8-2.3-1.8-9.7 0-9.1 1.2-12 4.3-10.8.8.3 1.9.2 2.6-.2.7-.5 0-.8-1.8-.9-1.7 0-3.5-.3-4.1-.7-.5-.3-1-4.6-1-9.4 0-9.8.8-11.4 5.7-11.1 5.1.4 4.9-.3-.2-.9l-5-.6-.3-8c-.5-12.8-.7-12.5 9.6-12.5 4.8 0 9.3.4 10 .8zm22 0c.9.6 1.2 3.4 1 10.3l-.3 9.4-8 .3c-12.9.5-12.6.7-12.4-9.6.1-4.8.6-9.3 1.1-10 1.2-1.4 16.5-1.7 18.6-.4zm22.5.6c.9 1 1.3 2.9 1 5.6-.2 2.3 0 4 .4 3.7.5-.3.8-2.3.7-4.4 0-2.1.3-4.4.9-5.1 1.3-1.7 18.3-1.7 19.4 0 1.3 2.2 1 17.8-.3 18.9-1.7 1.4-17.3 1.3-19-.1-.7-.7-1.1-2.4-.9-4.1.2-1.6-.1-3.2-.7-3.5-.7-.5-.9.1-.5 1.6.3 1.2.2 3.3-.3 4.6-.8 2.1-1.6 2.4-5.6 2.4-2.6 0-4.4.3-4.1.7.4.3 2.2.6 4 .5 5.3-.2 5.9.7 6.1 9.9.3 10.9-.2 11.4-11.3 11.3-5.7-.1-8.6-.6-9.2-1.5-1-1.6-.9-15.8.2-17.9.4-.9 2.3-1.7 4.5-1.8 5.5-.4 5.5-1.2.1-1.2-4.4 0-4.6-.1-5.1-3.3-.8-4.4-.3-14.9.7-16.5 1.2-1.8 17.1-1.7 19 .2zm-67 21.8c1.5.8 1.7 2.1 1.5 10.1-.3 8.8-.4 9.1-2.8 9.8l-2.5.6 2.8 1.1c2.7 1.1 2.7 1.3 2.7 10.1 0 6-.4 9.2-1.2 9.7-1.8 1.1-16 1.2-18 .2-1.5-.7-1.8-2.3-1.8-9.8 0-6 .4-9.1 1.3-9.7.6-.4 3.8-.8 6.9-.8 3.2-.1 6-.3 6.3-.7.3-.3-2.3-.5-5.8-.5s-6.9-.3-7.5-.7c-1.6-1-1.6-17.8 0-19.4 1.3-1.3 15.4-1.4 18.1 0zm44-.6c1.5.5 1.7 1.9 1.7 10 0 7.8-.3 9.6-1.6 10.1-1.5.6-1.5.7 0 1.9 1.4 1 1.8 2.9 1.8 9.6.2 9.2-.3 10.8-3.3 10.8-1 0-1.9.4-1.9 1 0 .5.6.7 1.3.4 2.7-1 4 2.4 3.9 10.7-.1 4.5-.6 8.6-1.1 9.3-1.1 1.3-16.7 1.6-18.8.3-.8-.5-1.2-3.8-1.1-9.7 0-10.3.5-11 7.6-10.4 2.3.2 4.2 0 4.2-.4s-2.3-.8-5.1-.7c-3.8 0-5.3-.4-6-1.7-1.4-2.6-1.1-17.4.4-18.6.6-.5 3.3-.9 5.9-.8 2.6.2 5.2 0 5.8-.4.6-.3-1.8-.7-5.2-.8-3.8-.1-6.4-.6-6.9-1.4-.5-.7-.9-5-.9-9.5 0-6.7.3-8.4 1.7-9.2 1.9-1 14.7-1.4 17.6-.5zm23 67.3c1.6 1.6 1.5 18-.3 19.1-1.7 1-16 1-18.1-.1-1.3-.6-1.6-2.5-1.7-8.6-.1-10.3.2-11.1 4.1-11.5 6.3-.6 14.9 0 16 1.1zm22 22c1.4 1.4 1.7 15.8.5 18.3-.7 1.5-2.2 1.8-9.1 1.8-4.5 0-8.9-.4-9.7-1-1.8-1.1-2.3-17.5-.6-18.9 2.3-1.9 17.1-2 18.9-.2zm22.4 22.3c1.1 1.9 1.2 17.1 0 18.5-1.3 1.8-18.3 1.8-19.3.1-1.1-1.7-1.2-15.9-.2-18.1.7-1.4 2.3-1.7 9.8-1.7 6 0 9.1.4 9.7 1.2zM559 231c1.2 2.2 1.2 16.1 0 17.9-.8 1.4-17.8 1.7-19.2.3-.5-.5-1-4.8-1-9.6-.1-6.6.2-9 1.3-9.7.8-.5 5.1-.9 9.6-.9 7.2 0 8.4.2 9.3 2zm21.7 21.2c1.5 1.2 1.8 16.5.4 18.7-1.1 1.6-16.8 2.3-18.8.8-.9-.6-1.3-4-1.3-10.2 0-8.1.2-9.4 1.8-9.8 3.6-.9 16.7-.5 17.9.5zm22.1 22.1c.8.6 1.2 3.7 1.2 9.7 0 6-.4 9.1-1.2 9.7-1.7 1-14.7 1.1-17.5.1-2.2-.7-2.3-1.3-2.3-9.7 0-7.2.3-9.2 1.6-9.9 1.9-1.1 16.4-1 18.2.1zm22.7 23c1.1 1.5 1.1 17.4-.1 18.6-.9 1-17.9.9-19.1-.2-1.9-1.4-1.7-17.1.1-19 2.1-2.1 17.5-1.6 19.1.6zm-433.7 52.1c1.7 1 1.7 18 0 19.3-1.7 1.3-15.7 1.4-18 .2-1.5-.8-1.8-2.3-1.8-9.7 0-4.9.4-9.2 1-9.8 1.1-1.1 17-1.1 18.8 0zm22.7 1.3c.5 1.3 1.3 2.3 1.8 2.3.4 0 .6-.4.3-.8-.2-.4-.1-1.4.4-2.2 1.2-2 18.7-2 19.9-.1.5.7.8 3.3.6 5.7-.1 2.5.2 4.1.8 3.7.5-.3.7-1.7.4-3.1-.3-1.4-.1-3.7.4-5.1.9-2.6 1.1-2.6 10-2.6 6.4 0 9.2.4 9.8 1.3 1.1 1.8 1.1 16.2 0 18.3-.6 1.3-2.6 1.6-9.4 1.7-9 0-11.9-1.2-10.9-4.6.2-.9-.2-.4-1 1.3-1.4 3-1.4 3-10.6 3.2-8.4.1-9.3 0-9.7-1.8-.6-2.2-2.3-2.6-2.3-.5 0 2-2.2 2.5-10.5 2.4-10.3 0-10.5-.2-10.5-10.9 0-10.6-.2-10.4 11.7-10.4 7.1 0 7.9.2 8.8 2.2zm66.4-1.3c1.6 1 1.5 18.2-.1 19.3-2.1 1.2-17 1.4-18.5.1-.9-.7-1.3-3.8-1.3-10 0-8.2.2-8.9 2.2-9.7 2.5-.9 16-.7 17.7.3zm22.3.4c.6.6 1.1 4.6 1 9.4-.1 6.4-.5 8.6-1.8 9.5-2 1.5-16.3 1.6-18.1.1-2-1.6-1.8-18.4.3-19.6 2.1-1.2 17.3-.7 18.6.6zm-133.7 21.6c1.2.4 1.5 2.7 1.5 10 0 11 .4 10.6-11 10.6-10.2 0-10.7-.5-10.3-10.6.3-9.4.5-10.2 3.5-10.6 3.4-.5 14.7-.1 16.3.6zm23.3 8.9c.2 5.7-.1 9.4-.9 10.3-1.5 1.8-16.9 2-18.7.2-1.3-1.3-1.7-17.9-.5-19.2.4-.4 5-.5 10.3-.4l9.5.3.3 8.8zm22-7.7c.8 1.4 1 1.4 2.1 0 2-2.4 18.6-2.3 20.1.1 1 1.7 1 1.7 2 0 .9-1.4 2.6-1.7 10.5-1.7 8.1 0 9.4.2 9.9 1.7.9 3 .4 16.7-.7 18-.6.9-3.8 1.3-9.3 1.3-10.2 0-11.3-.8-10.7-8.1.2-2.9 0-5-.3-4.6-.4.3-.8 2.9-1 5.7-.1 2.7-.5 5.4-.9 6-.3.5-4.4 1-9 1-7.4 0-8.7-.3-10.5-2.2-1.6-1.7-2-1.8-2-.6 0 .9-.7 1.9-1.6 2.2-2.9 1.1-16.9.7-18.2-.6-1.3-1.3-1.7-15.3-.6-18.2.9-2.3 18.9-2.3 20.2 0zm66.6 0c1.1 2.9.7 16.9-.6 18.2-1.3 1.3-15.3 1.7-18.2.6-1.3-.5-1.6-2.3-1.6-9.8 0-5.1.3-9.6.7-9.9.3-.4 4.8-.7 9.9-.7 7.5 0 9.3.3 9.8 1.6zm22.2-.4c1.3 2.1.7 18-.8 18.9-1.9 1.2-17 .9-18.5-.3-1.4-1.1-1.9-17.9-.6-19.1 1.2-1.2 19.1-.8 19.9.5zm200.9 15.7c10.5 0 29.5-.2 42.4-.3 31.5-.2 44.3 1.1 61.2 6.5 18.1 5.7 32.2 18 39.5 34.6 1.5 3.2 2.8 6.9 3.1 8.3.2 1.4.8 4.1 1.3 6 2 7.9 2.9 28.1 1.6 34.5-.2 1.1-.7 3.8-1 6.1-.8 4.5-2.9 11-3.9 12-.4.4-.7 1.4-.7 2.1 0 2.4-7 12.6-11.9 17.3-9 8.7-15.9 12.2-35.1 17.7-15.2 4.3-15.3 3.6 2 9.4 11.1 3.7 16.4 7 24.4 15.3 9.9 10.4 17.9 23.9 40.2 68 11.7 23.3 21.4 42.7 21.4 42.9 0 .2-6 .4-13.4.4l-13.5.1-3.8-7.7c-2.1-4.2-4.1-7.8-4.5-7.9-.5-.2-.8-.9-.8-1.5 0-2.3-33.1-67.1-38.6-75.6-10.6-16.2-22.5-25.4-38.4-29.7-5.6-1.5-11.2-1.8-39.5-1.8l-32.9-.1-.1 62v62l-12.7.2c-7.1 0-12.8-.2-12.9-.5-.6-3.3-.3-277.2.2-278.8.6-1.8 1.4-2.1 4.1-1.8 1.8.2 11.9.3 22.3.3zm-401 6.1c1 1.6 1.2 15.5.3 17.9-.7 1.9-1.5 2.1-9.5 2.1-4.8 0-9.3-.4-9.9-.8-1.2-.8-1.9-13.5-.9-17.5.7-2.7.8-2.7 10-2.7 5.4 0 9.7.4 10 1zm44.3.2c1.8 1.8 1.6 17.2-.3 18.8-1.8 1.5-17.3 1.6-18.8.1-1.3-1.3-1.7-17.2-.4-18.9 1.3-1.6 17.8-1.7 19.5 0zm22 0c.8.8 1.2 4.5 1.2 10 0 10.3.3 10.1-12.5 9.6l-8-.3-.3-9.4c-.2-6.9.1-9.7 1-10.3 2.1-1.3 17.2-1 18.6.4zm22.7 1.1c.3 1.2.5 5.8.3 10.2l-.3 8-9.4.3c-6.9.2-9.7-.1-10.3-1-.9-1.5-1.1-15.9-.2-18.2.5-1.3 2.4-1.6 10-1.6 8.9 0 9.4.1 9.9 2.3zm22.3-.7c.8 1.4 1 1.4 2.1 0 1.7-2 18.3-2.3 19.9-.4.5.7.9 3.2.7 5.5-.1 2.3.1 4 .5 3.8.4-.3.8-2.3.8-4.5s.4-4.4.7-5c1-1.5 18-1.3 19.3.3.9 1 1.1 14.6.3 18.9 0 .5-4.4.8-9.6.8-8.4 0-9.5-.2-10.5-2-.6-1.1-.8-2.6-.4-3.2.5-.7.3-.8-.5-.4-.7.5-1 1.4-.7 2.1.9 2.6-1.9 3.5-10.5 3.5-9 0-10.9-.8-10.4-4.2.2-1 0-2-.4-2.2-.4-.3-.8.7-.9 2.1-.1 1.3-.4 2.9-.8 3.4-.8 1.4-17.8 1.1-19.2-.3-1.3-1.3-1.7-15.3-.6-18.2.9-2.3 18.9-2.3 20.2 0zm66.6 0c.3.9.6 5.3.6 10 0 9.9.2 9.7-12.5 9.2l-8-.3-.3-8.9c-.2-4.9-.1-9.5.2-10.3.4-.9 3-1.3 10-1.3 7.6 0 9.5.3 10 1.6zm21.5-.7c1 .7 1.4 3.1 1.3 9.5 0 4.7-.3 9-.7 9.5-.3.7-4.5 1.1-10 1.1-7.5 0-9.4-.3-9.9-1.6-1.1-2.9-.7-16.9.6-18.2 1.4-1.4 16.6-1.6 18.7-.3zM80.4 416.3c1.4 1 1.6 2.6 1.4 10.2l-.3 9-6 .6-6 .6 5.1.1c2.7.1 5.5.7 6.2 1.4.8.8 1.2 4.5 1.2 10 0 7.2-.3 8.9-1.7 9.8-1.7 1-1.7 1 0 2 1.4.9 1.7 2.6 1.7 9.5 0 4.6-.3 9-.6 9.9-.5 1.3-2.3 1.6-9.3 1.6-5.4 0-9.2-.5-9.9-1.2-.8-.8-1.2-4.5-1.2-10 0-9.5.3-10 5.6-10.2 1.3-.1 2.6-.4 2.9-.8.3-.3-.9-.4-2.7-.3-1.8.2-3.9-.2-4.5-.7-1.8-1.5-1.8-18.2 0-19.7.8-.6 1.7-.8 2-.4.4.3.7.2.7-.4 0-.6-.9-1.3-2-1.6-1.8-.5-2-1.4-2-9.4 0-5.6.4-9.3 1.2-10.1 1.6-1.6 15.9-1.6 18.2.1zm22.3-.5c.6.4 1.3 3.1 1.4 6 .2 2.8.6 5.2 1 5.2.3 0 .4-1.9.2-4.3-.8-6.6.9-7.7 11.2-7.7 7 0 8.6.3 9.3 1.7.7 1.5.9 11.3.3 17.8-.1 1.1-1.4 1.5-4.3 1.6l-4.3.1 3.8.8c2 .4 4 1 4.4 1.4.4.4.8 4.5.9 9.2.1 9.4-1 11.9-5.3 11.1-1.2-.2-2.3 0-2.3.4 0 .5 1.6.9 3.5.9 2.1 0 3.6.5 3.7 1.2 0 .7.2 4.8.3 9.1.4 10.1-.1 10.6-10.7 10.6-7.9 0-11.4-1.1-10.2-3 .3-.5 0-.9-.5-.9-.6 0-1.1.6-1.1 1.4 0 .8-.7 1.7-1.6 2-2.9 1.1-16.9.7-18.2-.6-1.4-1.4-1.6-16.6-.3-18.7.5-.7 2.7-1.4 4.9-1.5 2.3-.1 4.4-.4 4.6-.7.3-.3-1.1-.5-3.2-.4-6.7.3-7.2-.5-7.2-10.5 0-7.9.2-9 2-10 1.1-.6 2.5-.8 3-.5.6.3 1 .2 1-.3s-1.3-1.2-3-1.6l-3-.6v-8.8c0-5.5.4-9.2 1.2-10 1.3-1.3 16.5-1.7 18.5-.4zm67.1.4c1.7 1.7 1.6 17.3-.1 19-1.7 1.6-17.2 1.7-18.8.1-1.7-1.7-1.5-18.3.2-19.4 2.1-1.3 17.3-1.1 18.7.3zm21.6-.6c2.3.9 2.3 18.9 0 20.2-1.4.8-1.4 1 0 2.1 2.1 1.7 2.3 18.5.4 19.8-1.8 1.1-15.9 1.2-18 .1-1.5-.7-1.8-2.3-1.8-9.7 0-10.5.7-11.5 8-10.9 2.7.1 5 0 5-.4s-2.8-.8-6.2-1l-6.3-.3-.3-8.8c-.2-5.7.1-9.4.9-10.3 1.2-1.4 15-2 18.3-.8zm23.6 1.1c1 1.7 1 1.7 2 0 .9-1.4 2.6-1.7 10.1-1.7 9.2 0 9.7.2 10.3 4.4.1.8.6 1.9 1.1 2.3.4.4.5-.2.2-1.5-1-4 1.6-5.2 10.8-5.2 8.3 0 9.6.5 10.1 3.8.4 2.3 1.4 2.7 1.4.6 0-1.1.5-2.5 1.2-3.2 1.6-1.6 17-1.6 18.6 0 1.4 1.4 1.6 16.6.3 18.7-1 1.6-16.9 2.3-18.8.8-.8-.6-1.3-3.4-1.3-7.5 0-3.6-.3-6.3-.6-5.9-.3.3-.6 2.8-.6 5.4 0 8-.2 8.3-6.6 8.4l-5.7.2 5 .6c2.8.4 5.5 1 6.1 1.3.7.5 1.1 4.1 1 10l-.1 9.2-2.9.7c-2.8.8-16.3.5-17.1-.3-.2-.2-.5-2.4-.7-5-.2-2.5-.6-4.4-1-4.2-.4.3-.5 1.9-.3 3.7.7 5.2-.5 6-9.2 6.3-8.9.3-11.3-.1-11.3-2.2 0-.8-.4-1.4-1-1.4-.5 0-1 .7-1 1.5 0 1.6-.9 1.8-11 2-9.7.3-10 0-10-10 0-7.4.3-8.7 2.2-10.5 1.8-1.6 1.9-2 .6-2-.9 0-1.9-.9-2.3-2-.9-2.9-.4-16.3.8-17.8.6-.8 3.9-1.2 9.8-1.2 7.3 0 9 .3 9.9 1.7zm88.1-.1c1.5 1.8 1.4 17.3-.1 18.8-1.2 1.2-14.7 1.5-17.7.5-2.2-.8-2.3-1.4-2.3-9.7 0-5.5.4-9.2 1.2-10 1.9-1.9 17.2-1.6 18.9.4zm-155.9 21.5c1.4.8 1.6 2.4 1.5 10-.2 8.2-.4 9.3-2.2 9.9-1.1.4-2.3.6-2.7.3-.5-.2-.8.1-.8.7 0 .7.7 1 1.5.6.8-.3 2.1.2 3 1 2 2.1 2.2 17.6.1 19.3-2 1.7-18.6 1.3-19.3-.5-1.1-3-.8-17.6.5-18.6.7-.6 3.7-1.1 6.7-1.2 2.9-.1 5.6-.4 5.9-.7.3-.3-2.1-.5-5.3-.4-3.2.2-6.4-.1-7.1-.5-.8-.5-1.2-3.5-1.2-8.1-.1-11 0-11.7 2-12.2 3.2-.7 15.7-.4 17.4.4zM59 461c1.5 2.3 1.2 17.6-.2 18.8-1.5 1.2-18.5 1.4-19.3.2-.4-.7-.8-12.1-.6-17.7.1-2.6 1.2-2.9 11.4-2.8 5.7.1 8.1.5 8.7 1.5zm110.8-.6c1.8 1.1 1.6 18-.2 19.5-1.6 1.4-16.6 1.3-18.3-.1-.9-.7-1.3-4-1.3-10 0-8.1.2-8.9 2.1-9.6 2.6-1 16.1-.8 17.7.2zm44.7.9c1.5 2.1 2.5 2.2 2.5.2 0-1.6.7-1.7 12.8-1.8 4.4 0 6.6.4 7.2 1.3.7 1.2 1.2 1.2 2.7-.1 2.5-2.1 18.1-2 19.3.2.4.8.8 5.1.7 9.7-.1 10.1-.3 10.3-11.9 9.9l-8.3-.2-.5-3-.6-3-.8 2.5c-1.2 3.6-2.2 4-10.8 4-5.7 0-8.1-.4-9.2-1.6-.9-.8-1.4-1.9-1.1-2.4.3-.5.2-1.1-.3-1.4-.4-.2-.9.5-.9 1.6-.3 3.1-1.7 3.6-11 3.6-10 0-10.2-.2-10.2-10.9 0-10.5-.1-10.4 11.5-10.3 6 0 7.9.4 8.9 1.7zm-22.7 21.2c.8.3 1.2 3.2 1.2 9.9 0 7.6-.3 9.5-1.6 10-2.9 1.1-16.9.7-18.2-.6-.8-.8-1.2-4.5-1.2-10 0-8 .2-8.9 2-9.6 2.1-.8 15.5-.6 17.8.3zm89.4.8c1.3 2 .9 17.2-.4 18.5-.7.7-4.5 1.2-9.9 1.2-9.5 0-9.8-.2-10-6.3 0-2.6-.2-2.8-.8-1.2-.5 1.1-.6 2.6-.3 3.3 1.1 3-1.9 4.2-10.9 4.2-10.2 0-10.5-.2-10.4-9.2.1-3.2-.1-5.5-.4-5.2-.3.3-.6 3.1-.6 6.3-.1 3.1-.5 6.3-.9 6.9-.5.8-3.8 1.2-9.6 1.2-9.9 0-10.8-.6-10.5-6.8 0-1.7-.2-3.2-.6-3.2-.4 0-.7 1.8-.7 4s-.4 4.4-.7 5c-.9 1.5-18 1.3-19.3-.3-1.1-1.3-1.6-14.8-.7-17.8.6-1.7 1.7-1.9 10.2-1.9 8.6 0 9.5.2 10 2s2.5 3 2.2 1.2c-.5-2.9.4-3.2 9.6-3.2 8.2 0 9.6.2 10.4 1.9.6 1 .7 2.1.4 2.5-.3.3-.1.6.6.6s1.1-.6.8-1.4c-1.1-2.7 1.7-3.6 11-3.6 5.1 0 9.3.3 9.4.7.1.5.3 2.8.4 5.2.5 6.2 1.5 6.4 1.5.3 0-3.5.5-5.4 1.5-5.9 2.2-1.3 17.8-.5 18.7 1zm-221.8.3c1.1 2.9.7 16.9-.6 18.2-1.4 1.4-18.4 1.7-19.3.3-.8-1.3-.8-17.8 0-19.1.3-.6 4.6-1 10-1 7.5 0 9.4.3 9.9 1.6zm22 0c.8 2 .8 15.8 0 17.8-.5 1.3-2.3 1.6-8.9 1.6-11.8 0-11.5.3-11.5-9.5 0-4.6.3-9 .6-9.9.9-2.4 18.9-2.4 19.8 0zm22-.8c.3.5.6 2.5.8 4.5.1 2.1.6 3.7 1 3.7s.5-1.3.2-3c-1.1-5 .7-6 10.7-6 7.4 0 9 .3 9.7 1.7 1.3 2.5.9 17-.4 18.3-.7.7-4.5 1-10 .8-8.3-.3-8.9-.5-10.1-2.8-1.2-2.3-1.3-2.4-1.3-.4 0 1.2-.7 2.5-1.6 2.8-2.9 1.1-16.9.7-18.2-.6-1.6-1.6-1.6-17 0-18.6 1.4-1.4 18.4-1.7 19.2-.4zm44.4.4c.7.7 1.2 4.3 1.2 9.3 0 5-.5 8.6-1.2 9.3-.8.8-4.5 1.2-10 1.2-7.2 0-9-.3-9.5-1.6-1-2.6-1-16.8 0-18.2 1.3-1.6 17.8-1.7 19.5 0zm22.6.4c1.1 2.9.7 16.9-.6 18.2-1.3 1.3-15.3 1.7-18.2.6-1.3-.5-1.6-2.3-1.6-9.8 0-5.1.3-9.6.7-9.9.3-.4 4.8-.7 9.9-.7 7.5 0 9.3.3 9.8 1.6zM58.8 505.2c1.3 1.3 1.7 15.3.6 18.2-.5 1.3-2.4 1.6-9.9 1.6-5.5 0-9.7-.4-10-1.1-.9-1.3-.9-17.5 0-18.8.9-1.5 17.8-1.4 19.3.1zm22.7 1.1c.3 1.2.5 5.8.3 10.2l-.3 8-8 .3c-12.9.5-12.5.8-12.5-10.2 0-6.6.4-9.6 1.3-9.9.6-.3 5.1-.6 9.9-.6 8.3-.1 8.8 0 9.3 2.2zm22.3 4.4c.2 3.5.6 6.3 1 6.3s.5-2.3.4-5c-.6-7.3.4-8 10.9-8 7.3 0 9 .3 9.9 1.7 1 1.7 1 1.7 2 0 .9-1.4 2.6-1.7 9.9-1.7 5.9 0 9.2.4 9.9 1.2 1.4 1.9 1.6 16.7.1 18.4-.8 1-3.6 1.4-9.9 1.4-9.1 0-11-.8-10.5-4.3.2-.9-.1-1.7-.7-1.7-.5 0-.8.6-.5 1.2.2.7 0 2.1-.5 3-.7 1.5-2.3 1.8-9.6 1.8-9.5 0-11.1-.7-11.3-4.9-.1-2-.3-1.8-.8.9l-.6 3.5-9.4.3c-6.9.2-9.7-.1-10.3-1-1.3-2.1-1-17.2.4-18.6.9-.9 4.1-1.2 10.3-1l9 .3.3 6.2zm66-5.5c1.4 1.4 1.7 16.5.4 18.6-.6.9-3.4 1.2-10.3 1l-9.4-.3-.3-8.9c-.2-4.9-.1-9.5.2-10.3.7-1.7 17.7-1.8 19.4-.1zm22.7 9.3v10h-20l-.3-9.4c-.2-6.9.1-9.7 1-10.3.7-.4 5.4-.7 10.3-.6l9 .3v10zm22.2-8.5l.6 2.1 1.4-2.1c1.2-1.8 2.5-2 10.3-2 7.7 0 9.1.3 9.9 1.9.6 1 .8 2.8.6 4-.2 1.3 0 1.9.6 1.5.6-.3.9-1.7.6-3.1-.3-1.6.1-2.7 1.4-3.3 2.7-1.5 17.5-1.3 18.6.2 1.4 1.8 1.5 16.9.1 18.5-1.2 1.5-18.3 1.9-19.2.4-.3-.5-.7-2.5-.8-4.4-.2-1.9-.6-3.3-1-3.1-.4.2-.5 1.7-.3 3.2.5 4.5-.9 5.2-10.6 5.2-8.3 0-10-.5-10.5-3.3-.4-2-.7-2-1.3.3-.7 2.4-1.1 2.5-9.5 2.8-5.6.2-9.3-.1-10.2-.9-1.8-1.5-2-16.9-.2-18.7.8-.8 4.5-1.2 10.1-1.2 8.1 0 8.9.2 9.4 2zm65.7-1.4c1.3.5 1.6 2.3 1.6 9.3 0 4.7-.4 9.2-.8 9.9-.6.9-3.4 1.2-10.3 1l-9.4-.3-.3-8c-.5-12.7-.7-12.5 9.2-12.5 4.7 0 9.1.3 10 .6zm22.5.3c1.1.7 1.4 3.1 1.3 9.6 0 4.8-.5 9.2-1 9.7s-5.1.7-10.3.6l-9.4-.3-.3-8.8c-.2-5.7.1-9.4.9-10.3 1.3-1.6 16.4-2 18.8-.5zM58.8 527.2c1.6 1.3 1.7 18.4.1 19.4-.6.3-3.7.6-7 .6-3.2 0-5.9.3-5.9.7 0 .3 2.4.6 5.3.5 8.4-.1 8.7.3 8.7 10.6 0 5.5-.4 9.1-1.1 9.6-1.6.9-17.5 1.2-19 .3-.7-.4-1.1-3.9-1.1-9.9 0-9.6.6-11.2 4.4-10.5 1 .2 1.8 0 1.8-.6 0-.5-1.1-.9-2.4-.9-1.4 0-2.7-.4-3.1-1-.3-.5-.6-4.8-.7-9.6-.1-6.4.3-8.8 1.3-9.5 1.9-1.2 17.1-.9 18.7.3zm22 0c.8.7 1.2 4 1.2 10 0 10-.6 10.8-8.2 10.1-2.1-.2-3.8 0-3.8.4s1.9.8 4.2.7c7.3-.2 7.8.5 7.8 10.5 0 5.9-.4 9.2-1.2 9.8-1.5 1.1-16.8 1.1-18.6-.1-1.9-1.1-1.6-18 .3-19.6 1.3-1.1 1.3-1.4 0-2.7-1.8-1.8-2.1-17.3-.4-19 1.4-1.4 16.9-1.5 18.7-.1zm22.7-.3c.2.4.5 3.3.6 6.4.1 3.1.5 5.7.9 5.7s.5-2.2.2-4.8c-.6-7 .8-8 11-8 7.3 0 8.5.2 10 2.1 1.4 1.8 1.8 1.9 1.8.6 0-2.4 2.1-2.9 11-2.9 6.8 0 8.1.3 9 1.9 1.2 2.3 1.3 16 .1 17.9-.5.8-3.2 1.3-7.7 1.4-12 .1-12.4 0-12.4-2.2 0-1.1-.5-2-1.2-2-.6 0-.8.3-.5.7.4.3 0 1.4-.9 2.4-1.4 1.6-1.4 2-.2 3.2 1 1.1 1.4 3.8 1.3 10 0 4.8-.4 8.9-.8 9.3-.4.4-4.8.8-9.8.9-8 .1-9.1-.1-10-1.8-1.1-1.9-1.1-1.9-2.4.1-1.2 1.6-2.5 1.9-9.8 1.7-4.6-.1-8.9-.5-9.5-.9-.8-.5-1.2-3.9-1.2-9.6 0-7.3.3-9.1 1.7-9.8 1.6-.9 1.6-1.1 0-2.7-2.1-2.1-2.5-17.3-.5-19.3 1.4-1.4 18.5-1.6 19.3-.3zm66.2.3c2 1.6 1.8 18.7-.2 19.4-2.3.9-15.3 1-17.6.2-1.7-.7-1.9-1.7-1.9-9.6 0-5.3.5-9.3 1.2-10 1.4-1.4 16.8-1.5 18.5 0zm21.7-.6c1.3.5 1.6 2.4 1.6 10 0 10.5-.5 11.3-7.2 10.7-2.1-.2-3.8 0-3.8.5 0 .4 1.4.7 3.2.6 1.7-.1 4.2.2 5.5.7 2.2.8 2.3 1.3 2.3 9.8 0 7.6-.3 9.2-1.7 9.9-1.5.7-10.7.9-17.5.3-1.6-.1-1.8-1.3-1.8-9.5 0-8.7.2-9.6 2.2-11 1.7-1.2 1.9-1.6.6-1.6-.9 0-1.9-.7-2.2-1.6-1.1-2.9-.7-16.9.6-18.2 1.3-1.3 15.3-1.7 18.2-.6zm23.1 2.1c.5 1.3 1.4 2.3 1.9 2.3s.6-.3.3-.6c-.3-.4-.2-1.5.4-2.5.8-1.6 2.2-1.9 9.4-1.9 7.4 0 8.7.3 10.5 2.2 1.6 1.7 2 1.8 2 .6 0-2.2 1.4-2.6 10.8-2.7 6.8-.1 8.3.2 9 1.6 1.2 2.3 1.4 16.4.3 18.2-.5.8-2.5 1.3-5 1.3-2.2 0-4.1.3-4.1.7 0 .4 1.6.6 3.5.5 5.3-.5 6.3 1.2 6.3 11.1-.1 9.1-.5 9.9-5 10-4.1.1-4.2 1.1 0 1.3 2 .2 4 .8 4.4 1.5.4.6.7 4.9.6 9.5 0 6.6-.4 8.4-1.7 9.2-1.8.9-17.6.8-18.7-.2-.3-.4-.7-2.9-.7-5.6-.1-2.8-.4-4.9-.8-4.6-.4.2-.5 2.4-.4 4.9.1 2.5-.3 4.9-.9 5.3-1.6 1.2-16.8 1.4-18.6.3-1-.7-1.5-3.2-1.6-9.4-.1-4.7.2-9 .5-9.6.4-.6 2.6-1.2 4.9-1.3 2.2-.1 3.9-.5 3.6-1-.3-.4-1.8-.6-3.4-.3-4 .7-5.7-1.4-5.6-6.9.1-2.5-.2-4.6-.7-4.6-.4 0-.6 1.8-.4 4 .7 6.7-.8 7.7-10.8 7.5-6.4-.1-8.9-.5-9.6-1.5-.5-.8-.9-5.2-.9-9.6 0-7.3.2-8.3 2.3-9.7 1.7-1.3 1.8-1.6.6-1.6-2.3-.1-2.9-2.2-2.9-10.2 0-10.5.3-10.7 10.7-10.6 8.1.2 8.9.4 9.8 2.4zm65.6-1.7c1.7.9 1.9 2.2 1.9 10.1 0 8.2-.2 9.1-2 9.6-1.1.3-2 1-2 1.5s.4.7.9.3c3.2-1.9 4.5 16.9 1.5 20-.9.9-2.3 1.4-3 1.1-.7-.3-1.5-.2-1.8.2-.2.4.7.9 2.1 1 1.3.1 2.9.4 3.4.8.5.3.9 4.5.9 9.4 0 7.5-.3 9.1-1.8 9.9-1.8.9-15.6 1.2-17.9.4-1.6-.6-1.8-18.9-.3-19.8.6-.4 3.5-.7 6.5-.7 3-.1 5.2-.5 5-.9-.3-.4-2.6-.6-5.2-.4-2.7.1-5.4-.2-6-.7-1.8-1.5-1.8-18.2 0-19.7.8-.6 3.5-.9 6-.7 2.6.3 4.7.1 4.7-.3 0-.5-2.2-.8-4.9-.8s-5.4-.3-6-.7c-1.5-1-1.5-17.8.1-19.4 1.5-1.5 15.2-1.6 17.9-.2zm21.7-.3c2.1.5 2.2 1 2.2 9.9s-.1 9.5-2.2 10.3l-2.2.8 2.2 1.2c2 1.1 2.2 1.9 2.2 10.2 0 8.8 0 9-2.7 10.1l-2.8 1.2 2.8.4 2.7.3v9.2c0 5.1-.4 9.7-.8 10.3-.9 1.4-17.3 1.5-18.9.2-1.5-1.2-1.8-16.5-.5-18.6.5-.8 3.4-1.3 7.5-1.4 3.6-.1 6.4-.5 6.1-.9-.2-.4-3-.6-6.1-.3-3.2.2-6.2-.1-7-.7-1.8-1.5-1.8-18.2 0-19.6.6-.6 2.5-.9 4-.8 1.5.1 3-.1 3.2-.6.3-.4-1-.7-2.9-.7s-3.9-.3-4.5-.7c-1.5-.9-1.4-17.8.1-19.3 1.2-1.2 13.3-1.5 17.6-.5zm23.4.7c1.7 1.6 1.6 17.2-.1 18.9-.6.6-2.7 1-4.6.9-1.9-.2-3.5.1-3.5.5 0 .5 1.5.8 3.4.7 1.8-.1 3.9.2 4.6.6 1.8 1.1 1.9 18.8.1 19.9-.9.6-.8 1.4.2 3.4 1.3 2.5 1.5 17.2.3 18.5-.3.3-2.3.8-4.3 1.2l-3.8.8 3.7.1c2 0 4 .6 4.4 1.3 1 1.6 1.1 15.3.2 17.8-.5 1.3-1.7 2-3.5 2.1-2.8.1-2.8.1.5 1 1.7.5 3.3 1.5 3.3 2.2.3 2.8 0 18-.4 18.3-.1.2-4.5.4-9.6.5-6.9.1-9.6-.2-10.2-1.2-1.3-2.1-1.1-17.3.3-18.7.7-.7 3.7-1.3 6.7-1.4l5.6-.2-5.5-.3c-3-.3-6-.9-6.7-1.5-1.7-1.4-1.8-16.9-.1-18.6.7-.7 3.4-1.2 6-1.2s4.8-.4 4.8-.8-2.1-.7-4.7-.6c-2.7.1-5.4-.3-6-.8-1.4-1.1-1.8-16.4-.5-18.4.4-.7 1.6-1.4 2.7-1.6l2-.5-2-.8c-3.1-1.3-3.5-2.4-3.5-10.7 0-5.6.4-8.1 1.6-9.2 1.4-1.5 1.4-1.7 0-3.2-2.4-2.3-2.3-17.9.1-19.3 2.7-1.5 16.9-1.3 18.5.3zM170 550c1.2 1.9 1.3 16.1 0 18-.7 1.1-3 1.5-9.9 1.5-4.9-.1-9.3-.3-9.6-.7-1.2-1.2-1-17.5.3-19 1.7-2.1 17.9-1.9 19.2.2zM59.1 572.1c.5.8.9 5.1.9 9.6 0 6.8-.3 8.4-1.7 9.1-2.1 1.1-17.8 1.1-18.8 0-.4-.4-.7-4.7-.7-9.5.1-6.3.5-9 1.5-9.8 2.2-1.6 17.7-1.1 18.8.6zm22-.4c1.3 1.4 1.3 17.3 0 18.6-1.5 1.5-17.1 1.9-18.8.5-1.6-1.3-1.8-17.9-.3-19.4 1.2-1.2 17.9-.9 19.1.3zm178.2 23.6c1 4.1.7 16-.4 17.4-1.5 1.7-18.4 1.9-19.5.2-.9-1.5-1.2-15.2-.4-17.6.8-2 7-3.1 15.2-2.5 3.8.3 4.7.8 5.1 2.5zm44.5 7.6c.2 6.9-.1 9.7-1 10.3-1.5.9-15.9 1.1-18.2.2-1.3-.5-1.6-2.3-1.6-9.3 0-4.7.4-9.1.8-9.8.8-1.3 9.6-2.1 15.7-1.3l4 .5.3 9.4zm-22-.6c.2 5.7-.1 9.4-.9 10.3-1.8 2.1-18.5 2-19.3-.2-.8-2.2-.8-17.9.1-18.8.4-.4 5-.5 10.3-.4l9.5.3.3 8.8zm-.4 14.3c.3.9.6 5.3.6 9.9 0 7-.3 8.4-1.7 9-2.7 1-17.5.7-18.7-.5-1.4-1.4-.8-18.2.7-19.2.7-.4 5.1-.8 9.8-.8 7 0 8.8.3 9.3 1.6zm21-1c1.3.5 1.6 2.4 1.6 9.9 0 5.2-.4 9.6-.9 10-1.4.8-16.3.8-18.3 0-1.5-.6-1.8-2.1-1.8-10 0-6.5.4-9.5 1.3-9.8 1.8-.8 16.2-.8 18.1-.1z"/><path d="M389 118c0 .5.5 1 1 1 .6 0 1-.5 1-1 0-.6-.4-1-1-1-.5 0-1 .4-1 1zM392.6 118.2c.3.4 1.1.5 1.9.1 2.1-.7 1.9-1.2-.4-1-1.1 0-1.8.5-1.5.9zM397 118c0 .5.5 1 1 1 .6 0 1-.5 1-1 0-.6-.4-1-1-1-.5 0-1 .4-1 1zM397 162c0 .5.5 1 1 1 .6 0 1-.5 1-1 0-.6-.4-1-1-1-.5 0-1 .4-1 1zM437 118c0 .5.5 1 1 1 .6 0 1-.5 1-1 0-.6-.4-1-1-1-.5 0-1 .4-1 1zM465 118c0 .5.5 1 1 1 .6 0 1-.5 1-1 0-.6-.4-1-1-1-.5 0-1 .4-1 1zM463 140c0 .5.5 1 1 1 .6 0 1-.5 1-1 0-.6-.4-1-1-1-.5 0-1 .4-1 1zM215 355.5c0 .8.4 1.5.8 1.5.5 0 .9-.7.9-1.5s-.4-1.5-.9-1.5c-.4 0-.8.7-.8 1.5zM215.3 360c.1 2.1 1 1.8 1.3-.5.1-.8-.2-1.5-.6-1.5-.5 0-.8.9-.7 2zM237 362c0 .5.5 1 1 1 .6 0 1-.5 1-1 0-.6-.4-1-1-1-.5 0-1 .4-1 1zM215 364.1c0 .5.5.7 1 .4.6-.3 1-.8 1-1.1 0-.2-.4-.4-1-.4-.5 0-1 .5-1 1.1zM215 376c0 .5.5 1 1 1 .6 0 1-.5 1-1 0-.6-.4-1-1-1-.5 0-1 .4-1 1zM237.5 375.9c-.3.5-.1 1.2.5 1.6.5.3 1-.1 1-.9 0-1.8-.6-2.1-1.5-.7zM215 379.5c0 .8.4 1.5.8 1.5.5 0 .9-.7.9-1.5s-.4-1.5-.9-1.5c-.4 0-.8.7-.8 1.5zM215.3 384.5c0 1.4.3 2.5.6 2.5.4 0 .7-1.1.7-2.5s-.3-2.5-.7-2.5c-.3 0-.6 1.1-.6 2.5zM503.8 407.9c-.3 1.3-.2 113.9.1 116.4.1.5 16.4.7 36.4.5 30.4-.3 37.3-.7 43.2-2.2 28.8-7.2 43.1-27.6 42.1-60.1-.6-18.3-4.6-28.8-15.2-39.3-7.5-7.3-15.3-11.4-27.4-14.4-7.7-1.9-11.7-2.1-43.7-2.3-31.5-.2-35.2 0-35.5 1.4zm74.2 13.9c22.9 5.1 33.4 18.2 33.9 42.3.5 21.6-7.5 35.8-23.6 42.3-9.1 3.7-12.8 4.1-42.8 4.1h-28l-.1-44c0-24.2.2-44.5.4-45.2.6-1.8 51.6-1.4 60.2.5zM215.2 400c.1 1.6.4 3 .7 3 .4 0 .7-1.4.6-3 0-1.7-.3-3-.7-3-.4 0-.6 1.3-.6 3zM215 405c0 .5.5 1 1.1 1 .5 0 .7-.5.4-1-.3-.6-.8-1-1.1-1-.2 0-.4.4-.4 1zM237 406c0 .5.5 1 1 1 .6 0 1-.5 1-1 0-.6-.4-1-1-1-.5 0-1 .4-1 1zM66 436.4c0 .2.7.6 1.5 1 .8.3 1.5.1 1.5-.4 0-.6-.7-1-1.5-1s-1.5.2-1.5.4zM71 459.2c0 .5 1.5.7 3.4.5 1.9-.1 3.2-.4 2.9-.7-.8-.8-6.3-.6-6.3.2zM104 431.2c0 3.6-2 6.4-3.5 5-.5-.4-.5-.1-.1.5.4.7 1.4 1.3 2.2 1.3 1.1 0 1.4 1.9 1.4 9.5 0 10.3-.6 11.4-6.2 11-1.6-.1-2.8.2-2.8.6 0 .4 1.5.6 3.3.5 3.6-.4 6.9 1.8 6 4-.3.8-.1 1.4.4 1.4s.9-1 1-2.2c.3-2.9 1.5-3.5 6.8-3.3 2.5.1 4.8-.1 5-.5.2-.4-1.5-.6-3.8-.5-8 .4-8.7-.3-8.7-9.4 0-8.8.5-11.1 2.6-11.1 2 0 1.7-1.7-.4-2.2-1.2-.3-1.8-1.6-2-3.8-.4-4.6-1.2-5.2-1.2-.8zM90 436.4c0 .2.7.6 1.5 1 .8.3 1.5.1 1.5-.4 0-.6-.7-1-1.5-1s-1.5.2-1.5.4zM94 436.4c0 .2 1.1.6 2.5.8 1.4.3 2.5.1 2.5-.3 0-.5-1.1-.9-2.5-.9s-2.5.2-2.5.4zM110 436.4c0 .2.7.6 1.5 1 .8.3 1.5.1 1.5-.4 0-.6-.7-1-1.5-1s-1.5.2-1.5.4zM114 436.4c0 .2.7.6 1.5 1 .8.3 1.5.1 1.5-.4 0-.6-.7-1-1.5-1s-1.5.2-1.5.4zM104 468.5c0 1.4.4 2.5.9 2.5.4 0 .6-1.1.3-2.5-.2-1.4-.6-2.5-.8-2.5-.2 0-.4 1.1-.4 2.5zM186 436.4c0 .2.7.6 1.5 1 .8.3 1.5.1 1.5-.4 0-.6-.7-1-1.5-1s-1.5.2-1.5.4zM215 422c0 .5.5 1 1.1 1 .5 0 .7-.5.4-1-.3-.6-.8-1-1.1-1-.2 0-.4.4-.4 1zM237.5 423.9c-.3.5-.1 1.2.5 1.6.5.3 1-.1 1-.9 0-1.8-.6-2.1-1.5-.7zM215 425c0 .5.5 1 1.1 1 .5 0 .7-.5.4-1-.3-.6-.8-1-1.1-1-.2 0-.4.4-.4 1zM215 428c0 .5.5 1 1.1 1 .5 0 .7-.5.4-1-.3-.6-.8-1-1.1-1-.2 0-.4.4-.4 1zM237.6 428.7c-.4.9-.3 2 .2 2.5.4.4.9-.4 1-1.7.2-2.9-.3-3.2-1.2-.8zM214.8 432.7c-.3 2.7-.5 2.8-8.3 3.4l-8 .5 7 .2c3.9.1 7.6.6 8.3 1 .7.5 1.3 2.9 1.5 5.4.1 2.6.4 4.5.8 4.2.4-.2.5-1.8.3-3.5-.7-5.6.8-6.7 8.1-6.6 3.6.1 6.5-.2 6.5-.6 0-.5-2.7-.7-5.9-.6-6.2.3-9.4-1.1-8.5-3.6.3-.7.1-1.6-.5-1.9-.5-.4-1.1.6-1.3 2.1zM236.6 434.5c-.3.8-1.6 1.5-2.8 1.6-2.3 0-2.3 0 .2 1 3 1.2 3.9 2.6 3.5 5.1-.2 1 0 1.6.6 1.3.5-.4.9-1.7.9-3 0-2.6 3.5-4.3 6.5-3.1.8.3 1.5.1 1.5-.4 0-.6-1.8-1-4-1-2.9 0-4-.4-4-1.5 0-.8-.4-1.5-.9-1.5s-1.1.7-1.5 1.5zM237 446c0 .5.5 1 1 1 .6 0 1-.5 1-1 0-.6-.4-1-1-1-.5 0-1 .4-1 1zM215 450.1c0 .5.5.7 1 .4.6-.3 1-.8 1-1.1 0-.2-.4-.4-1-.4-.5 0-1 .5-1 1.1zM215 453.1c0 .5.5.7 1 .4.6-.3 1-.8 1-1.1 0-.2-.4-.4-1-.4-.5 0-1 .5-1 1.1zM237 463.9c0 .6.5 1.3 1 1.6.6.3 1-.1 1-.9 0-.9-.4-1.6-1-1.6-.5 0-1 .4-1 .9zM215.3 465.9c0 1.1.5 1.8.9 1.5.4-.3.5-1.1.1-1.9-.7-2.1-1.2-1.9-1 .4zM237.9 467.7c-.6 3.3-.5 5.4.1 5.8.5.3.8-1.1.8-3 0-3.1-.6-4.8-.9-2.8zM215 470.1c0 .5.5.7 1 .4.6-.3 1-.8 1-1.1 0-.2-.4-.4-1-.4-.5 0-1 .5-1 1.1zM215 473c0 .5.5 1 1.1 1 .5 0 .7-.5.4-1-.3-.6-.8-1-1.1-1-.2 0-.4.4-.4 1zM215 488c0 .5.5 1 1.1 1 .5 0 .7-.5.4-1-.3-.6-.8-1-1.1-1-.2 0-.4.4-.4 1zM215 491.1c0 .5.5.7 1 .4.6-.3 1-.8 1-1.1 0-.2-.4-.4-1-.4-.5 0-1 .5-1 1.1zM104 494.5c0 1.4.4 2.5.9 2.5.4 0 .6-1.1.3-2.5-.2-1.4-.6-2.5-.8-2.5-.2 0-.4 1.1-.4 2.5zM126.4 512.4c.2 5.8 1.2 6.8 1.1 1.1 0-2.4-.3-4.6-.6-5-.4-.3-.6 1.4-.5 3.9zM215.3 512.5c.1 1.9.3 3.2.6 2.9.8-.7.8-6.4 0-6.4-.3 0-.6 1.6-.6 3.5zM237 514c0 .5.5 1 1 1 .6 0 1-.5 1-1 0-.6-.4-1-1-1-.5 0-1 .4-1 1zM215 518.1c0 .5.5.7 1 .4.6-.3 1-.8 1-1.1 0-.2-.4-.4-1-.4-.5 0-1 .5-1 1.1zM65 547.8c0 .4.9.8 2 .8s2-.4 2-.8-.9-.8-2-.8-2 .4-2 .8zM126.4 536c.2 6.8 1.1 7.2 1.1.4 0-3-.2-5.4-.6-5.4-.3 0-.5 2.2-.5 5zM104.1 542.8c-.1 2.4-.7 3.5-2.3 4.2l-2.3.9 2.3.7c2.5.7 2.4.4 2.2 9.6-.1 3.8.2 6.8.7 6.8.4 0 .6-2.7.5-6-.3-3.9.1-7 1.1-8.9 1.3-2.5 1.3-3.2.2-4.1-.8-.6-1.6-2.4-1.8-3.8-.4-2.4-.4-2.3-.6.6zM89 547.8c0 .4.9.8 2 .8s2-.4 2-.8-.9-.8-2-.8-2 .4-2 .8zM94 547.9c0 .4 1.1.7 2.5.7s2.5-.3 2.5-.7c0-.3-1.1-.7-2.5-.7s-2.5.4-2.5.7zM109 547.9c0 .8 5.7.8 6.5-.1.4-.3-1-.6-2.9-.6-2 0-3.6.3-3.6.7zM117 547.8c0 .4 1.4.7 3 .7 1.7.1 3-.2 3-.6 0-.3-1.3-.6-3-.7-1.6 0-3 .2-3 .6zM177 547.8c0 .4.9.8 2 .8s2-.4 2-.8-.9-.8-2-.8-2 .4-2 .8zM237.4 533.4c0 1.4.4 2.2.8 2 .4-.3.8-1.4.8-2.5 0-1-.4-1.9-.8-1.9s-.8 1.1-.8 2.4zM215 533.5c0 .8.4 1.5.8 1.5.5 0 .9-.7.9-1.5s-.4-1.5-.9-1.5c-.4 0-.8.7-.8 1.5zM215.9 536.2c-.5.8-.5 7.7 0 7.3.5-.6.9-7.5.4-7.5-.2 0-.4.1-.4.2zM237 538c0 .5.5 1 1 1 .6 0 1-.5 1-1 0-.6-.4-1-1-1-.5 0-1 .4-1 1zM237.9 540.2c-.1.2-.3 1.6-.5 3.2-.4 3.8-.7 4-6.4 3.9-2.8-.1-5 .2-5 .5 0 .4 2 .7 4.4.6 5.6-.1 6.8.6 6.9 4.4.2 3.8 1.7 3.1 1.7-.8 0-1.7.7-3 1.7-3.4 1.5-.6 1.5-.8-.1-1.9-1-.7-1.9-2.5-1.9-4-.2-2.4-.5-3.2-.8-2.5zM213.1 546.5c-1.3.7-3.6 1.1-5.2.8-1.6-.2-2.9 0-2.9.4 0 .5 1.9.9 4.3.8 3.4 0 4.4.4 5.2 2.2.5 1.3 1.3 2.3 1.8 2.3.4 0 .5-.4.2-1-.3-.5.3-1.7 1.4-2.7 1.9-1.5 1.9-1.7.3-2.9-2-1.6-2-1.6-5.1.1zM199 548.2c0 .9 3.6.5 4.6-.5.4-.4-.5-.6-1.9-.5-1.5.1-2.7.6-2.7 1zM221 547.8c0 .4.9.8 2 .8s2-.4 2-.8-.9-.8-2-.8-2 .4-2 .8zM243 548.1c0 .5.5.7 1 .4.6-.3 1-.8 1-1.1 0-.2-.4-.4-1-.4-.5 0-1 .5-1 1.1zM246 547.8c0 .5.7.9 1.5.9s1.5-.4 1.5-.9c0-.4-.7-.8-1.5-.8s-1.5.4-1.5.8zM215 555.5c0 .8.4 1.5.8 1.5.5 0 .9-.7.9-1.5s-.4-1.5-.9-1.5c-.4 0-.8.7-.8 1.5zM237 558c0 .5.5 1 1 1 .6 0 1-.5 1-1 0-.6-.4-1-1-1-.5 0-1 .4-1 1zM237.7 560.7c-.3.5-.4 2.3-.2 4.1.3 3.8-1.2 4.9-6.3 4.7-1.8 0-3.5.2-3.7.6-.3.3 1.4.6 3.5.6 2.3 0 4.8.7 5.8 1.6 1.6 1.5 1.9 1.5 2.9-.2.9-1.4 2.2-1.7 5.8-1.5 2.6.2 4.4 0 4-.4-.3-.4-2.7-.7-5.1-.8-2.4-.1-4.7-.3-5-.6-.3-.4-.6-2.4-.7-4.7-.2-4.3-.3-4.6-1-3.4zM237 578c0 .5.5 1 1 1 .6 0 1-.5 1-1 0-.6-.4-1-1-1-.5 0-1 .4-1 1zM274.5 548c.4.6 1.1.8 1.6.5 1.4-.9 1.1-1.5-.7-1.5-.8 0-1.2.5-.9 1zM293 547.8c0 .4 1.4.7 3 .7 1.7.1 3-.2 3-.6 0-.3-1.3-.6-3-.7-1.6 0-3 .2-3 .6zM309 547.9c0 .8 5.7.8 6.5-.1.4-.3-1-.6-2.9-.6-2 0-3.6.3-3.6.7zM311.7 570.2c-.6.4.8.7 3.1.6 2.3 0 4.4-.3 4.6-.7.6-.9-6.2-.9-7.7.1zM321 570c0 .5.5 1 1 1 .6 0 1-.5 1-1 0-.6-.4-1-1-1-.5 0-1 .4-1 1z"/></svg>